# xmcd
#
# Track frame offsets:
#	150
#	14230
#	29342
#	41197
#	54175
#	67987
#	79675
#	91447
#	103555
#	115112
#	126400
#	138182
#	152030
#	162760
#	172712
#	187825
#
# Disc length: 2693 seconds
#
# Revision: 3
# Processed by: cddbd v1.5.2PL0 Copyright (c) Steve Scherf et al.
# Submitted via: audiograbber 1.83.01
#
DISCID=c60a8310
DTITLE=Hawkins, Screamin' Jay - Screamin' the Blues
DYEAR=1979
DGENRE=R&B
TTITLE0=Not Anymore
TTITLE1=Please Try to Understand
TTITLE2=Baptize Me in Wine
TTITLE3=This Is All
TTITLE4=She Put the Wammee on Me
TTITLE5=Well I Tried
TTITLE6=You're All of My Life to Me
TTITLE7=I Hear Voices
TTITLE8=Talk About Me
TTITLE9=Just Don't Care
TTITLE10=Whammy, The
TTITLE11=Poor Folks
TTITLE12=Your Kind of Love
TTITLE13=All Night
TTITLE14=Monkberry Moon Delight
TTITLE15=Sweet Ginny
EXTD=
EXTT0=1953
EXTT1=1953
EXTT2=1953
EXTT3=1954
EXTT4=1954
EXTT5=1954
EXTT6=1954
EXTT7=1962
EXTT8=1954
EXTT9=1962
EXTT10=1963
EXTT11=1965
EXTT12=1965
EXTT13=1967
EXTT14=1970
EXTT15=1970
PLAYORDER=
